<?xml version="1.0" standalone="no"?>
<!DOCTYPE svg PUBLIC "-//W3C//DTD SVG 20010904//EN"
 "http://www.w3.org/TR/2001/REC-SVG-20010904/DTD/svg10.dtd">
<svg version="1.0" xmlns="http://www.w3.org/2000/svg"
 width="1920.000000pt" height="1080.000000pt" viewBox="0 0 1920.000000 1080.000000"
 preserveAspectRatio="xMidYMid meet">

<g transform="translate(0.000000,1080.000000) scale(0.100000,-0.100000)"
fill="#000000" stroke="none">
<path d="M13355 10559 c-85 -9 -352 -46 -396 -55 -22 -4 -37 -28 -102 -162
-97 -201 -109 -239 -101 -311 l6 -56 -51 -23 c-49 -22 -69 -39 -33 -28 36 11
44 -7 43 -102 0 -67 4 -93 15 -103 12 -10 12 -13 0 -23 -13 -10 -13 -14 0 -36
14 -23 14 -23 9 -2 -8 28 8 29 35 2 14 -14 20 -33 20 -62 0 -24 7 -63 16 -87
8 -24 12 -51 8 -60 -5 -11 -10 -1 -14 29 -3 25 -6 -47 -6 -160 0 -113 3 -191
7 -175 l7 30 2 -30 c2 -30 2 -30 10 -5 8 24 8 24 9 3 1 -13 7 -23 16 -23 17 0
20 60 5 95 -6 13 -7 2 -3 -30 3 -27 3 -47 -2 -43 -4 3 -9 59 -11 124 -2 64 -6
119 -8 121 -2 3 -4 -41 -4 -97 0 -56 -3 -105 -7 -108 -4 -4 -6 22 -6 58 1 36
2 94 2 130 0 35 4 69 8 75 5 5 11 60 14 122 15 272 95 446 214 469 54 10 258
-17 530 -71 l231 -46 124 52 c67 28 133 55 145 60 19 7 36 -3 105 -59 46 -37
88 -72 95 -78 10 -10 46 -216 68 -392 7 -52 18 -59 28 -17 2 11 4 1 4 -22 -1
-23 -4 -37 -8 -31 -10 16 -23 -76 -16 -118 5 -32 -6 -48 -16 -21 -2 6 -4 1 -4
-13 0 -28 -10 -99 -19 -136 -3 -13 -2 -24 3 -24 8 0 10 8 16 64 1 13 6 22 10
19 5 -3 7 -23 5 -44 -4 -40 7 -50 30 -27 14 14 16 42 2 33 -6 -4 -10 5 -10 19
0 14 5 26 10 26 13 0 8 63 -5 72 -7 5 -6 14 3 28 16 26 17 243 1 220 -9 -12
-10 -11 -4 5 4 11 10 40 13 65 2 25 11 49 18 53 8 4 15 27 16 50 1 41 1 41 6
7 4 -30 5 -32 13 -15 7 15 8 9 5 -20 -3 -25 -2 -34 3 -25 14 24 17 85 4 83 -6
-1 -14 9 -17 22 -4 14 -11 25 -16 25 -6 0 -10 11 -10 25 0 14 5 25 10 25 6 0
10 -10 10 -22 0 -27 10 -42 28 -46 9 -2 13 7 11 25 -4 58 -4 58 72 57 l71 -1
-88 57 c-49 32 -92 56 -95 54 -13 -7 -19 27 -13 70 5 37 -3 67 -57 210 l-64
167 -55 15 c-193 54 -184 48 -195 117 l-6 37 -307 -1 c-169 -1 -343 -5 -387
-10z m-609 -624 c-14 -14 -16 -14 -16 -2 0 9 6 17 13 20 19 7 21 -1 3 -18z
m1741 -18 c15 -12 40 -29 56 -36 15 -8 27 -18 27 -23 0 -10 -57 18 -82 40 -17
14 -18 13 -19 -19 0 -19 -4 -43 -9 -54 -6 -17 -9 -14 -15 18 -5 23 -3 48 3 62
9 20 9 23 -3 18 -8 -3 -15 0 -15 6 0 18 27 13 57 -12z m-1730 -34 c-3 -10 -5
-2 -5 17 0 19 2 27 5 18 2 -10 2 -26 0 -35z m-20 -30 c-3 -10 -5 -2 -5 17 0
19 2 27 5 18 2 -10 2 -26 0 -35z m1763 12 c11 -13 10 -14 -4 -9 -9 3 -16 10
-16 15 0 13 6 11 20 -6z m-1735 -57 c-11 -56 -16 -68 -27 -68 -6 0 -7 7 -3 18
5 9 10 32 13 50 2 17 9 32 14 32 6 0 7 -14 3 -32z m9 -64 c-3 -35 -14 -44 -14
-12 0 21 7 38 15 38 1 0 1 -12 -1 -26z m1607 -396 c-8 -28 -9 -30 -10 -8 -1
34 12 80 17 58 2 -9 -1 -31 -7 -50z m-6 -107 c-7 -33 -25 -33 -25 0 0 11 5 17
10 14 6 -3 10 2 10 11 0 10 3 15 6 11 3 -3 3 -19 -1 -36z"/>
<path d="M14452 9860 c0 -14 2 -19 5 -12 2 6 2 18 0 25 -3 6 -5 1 -5 -13z"/>
<path d="M12586 9880 c-26 -17 -44 -35 -41 -41 4 -6 1 -9 -6 -7 -8 1 -26 -6
-41 -16 -38 -25 -23 -56 27 -54 33 1 34 2 32 43 l-2 41 42 -2 c42 -2 42 -2 41
32 -1 19 -2 34 -3 34 0 0 -22 -14 -49 -30z m34 -10 c0 -5 -8 -10 -17 -10 -15
0 -16 2 -3 10 19 12 20 12 20 0z m-85 -70 c-3 -5 -16 -10 -28 -10 -18 0 -19 2
-7 10 20 13 43 13 35 0z"/>
<path d="M14643 9800 c-2 -18 25 -42 44 -39 26 4 33 -4 33 -41 0 -36 2 -40 26
-40 15 0 23 4 19 11 -4 6 -13 8 -21 5 -8 -3 -11 0 -7 10 6 17 9 17 34 3 11 -5
16 -15 13 -21 -4 -6 -3 -8 3 -5 14 9 24 -18 16 -39 -4 -12 0 -14 21 -8 17 4
26 2 26 -6 0 -7 -6 -10 -13 -7 -6 2 -18 -2 -25 -9 -11 -12 -8 -14 13 -14 14 0
25 5 25 11 0 7 18 -6 40 -27 40 -39 48 -54 30 -54 -5 0 -10 7 -10 16 0 20 -24
13 -28 -9 -3 -12 7 -16 40 -19 42 -3 43 -4 43 -38 0 -33 2 -35 33 -35 17 -1
32 0 32 2 0 9 -119 143 -188 210 -57 57 -87 80 -99 76 -11 -4 -14 -2 -11 8 4
12 -64 79 -81 79 -4 0 -7 -9 -8 -20z m37 -15 c7 -8 8 -15 2 -15 -5 0 -15 7
-22 15 -7 8 -8 15 -2 15 5 0 15 -7 22 -15z m320 -325 c0 -5 -4 -10 -10 -10 -5
0 -10 5 -10 10 0 6 5 10 10 10 6 0 10 -4 10 -10z"/>
<path d="M12453 9776 c4 -10 1 -13 -7 -10 -8 3 -16 -4 -19 -17 -4 -14 -11 -20
-20 -16 -9 3 -27 -8 -43 -26 -16 -17 -20 -25 -9 -16 36 29 51 34 31 11 -18
-21 -18 -21 5 -21 55 1 89 10 89 24 0 8 -7 15 -15 15 -20 0 -19 17 0 28 17 9
11 42 -7 42 -6 0 -8 -7 -5 -14z m-28 -76 c-3 -5 -11 -10 -16 -10 -6 0 -7 5 -4
10 3 6 11 10 16 10 6 0 7 -4 4 -10z"/>
<path d="M12283 9636 c-30 -31 -29 -35 4 -33 22 2 28 8 30 30 2 33 -5 34 -34
3z m27 -16 c0 -5 -4 -10 -10 -10 -5 0 -10 5 -10 10 0 6 5 10 10 10 6 0 10 -4
10 -10z"/>
<path d="M12721 9614 c0 -11 3 -14 6 -6 3 7 2 16 -1 19 -3 4 -6 -2 -5 -13z"/>
<path d="M12760 9616 c0 -9 7 -16 16 -16 17 0 14 22 -4 28 -7 2 -12 -3 -12
-12z"/>
<path d="M14417 9623 c-12 -11 -8 -23 8 -23 8 0 15 7 15 15 0 16 -12 20 -23 8z"/>
<path d="M14471 9614 c0 -11 3 -14 6 -6 3 7 2 16 -1 19 -3 4 -6 -2 -5 -13z"/>
<path d="M12207 9552 c-15 -15 -27 -31 -27 -34 0 -3 -12 -20 -27 -37 -21 -24
-27 -39 -24 -66 2 -28 -1 -35 -15 -35 -14 0 -15 3 -6 12 17 17 15 33 -3 18
-25 -21 -19 -50 10 -50 14 0 25 5 25 11 0 5 4 7 10 4 11 -6 8 50 -3 61 -8 8 3
34 14 34 15 0 50 40 44 50 -4 6 -2 10 3 10 6 0 12 -7 16 -15 6 -17 -40 -69
-54 -60 -5 3 -12 0 -16 -6 -5 -9 4 -10 32 -4 21 4 41 8 42 10 4 4 11 125 8
125 -1 0 -14 -13 -29 -28z"/>
<path d="M15040 9428 c0 -13 30 -62 42 -70 10 -6 10 -10 -2 -18 -8 -5 -19 -9
-25 -9 -5 0 -4 3 3 6 17 7 15 23 -3 23 -12 0 -15 -10 -13 -40 3 -38 21 -54 31
-27 4 10 6 10 6 0 1 -7 6 -13 12 -13 6 0 8 9 4 23 -6 20 -5 21 8 5 8 -10 16
-15 19 -13 3 3 4 -17 2 -45 -2 -44 0 -50 17 -50 18 0 19 1 3 25 -10 15 -14 34
-10 48 4 16 -1 31 -14 45 -11 12 -20 25 -20 29 -1 9 -60 90 -60 81z"/>
<path d="M12047 9345 c-31 -52 -33 -65 -11 -65 11 0 14 6 9 23 -5 17 -4 18 4
7 14 -21 25 -6 27 40 1 22 1 40 0 40 0 0 -13 -20 -29 -45z m23 -15 c0 -5 -4
-10 -10 -10 -5 0 -10 5 -10 10 0 6 5 10 10 10 6 0 10 -4 10 -10z"/>
<path d="M11962 9193 c-18 -36 -31 -68 -28 -71 9 -8 35 30 36 51 0 10 7 29 16
42 9 13 14 29 12 34 -1 5 -18 -20 -36 -56z"/>
<path d="M15151 9255 c0 -18 28 -61 29 -44 0 8 -7 24 -15 35 -8 10 -14 15 -14
9z"/>
<path d="M11980 9170 c0 -16 -4 -30 -10 -30 -5 0 -10 -4 -10 -9 0 -6 9 -9 20
-8 16 1 20 8 20 39 0 21 -4 38 -10 38 -5 0 -10 -13 -10 -30z"/>
<path d="M15202 9104 l-3 -66 27 6 c15 4 23 3 20 -3 -9 -14 4 -41 20 -41 10 0
12 5 6 18 -9 16 -21 45 -53 120 l-14 32 -3 -66z"/>
<path d="M11900 9063 c-7 -21 -16 -42 -21 -47 -5 -6 -9 -17 -9 -25 0 -9 -7
-29 -15 -45 -20 -39 -19 -53 4 -32 12 11 17 26 14 39 -4 20 -3 20 9 6 11 -13
16 -14 25 -4 9 10 9 14 -2 19 -8 3 -15 13 -15 23 0 14 2 15 9 4 5 -7 11 -9 13
-5 6 10 8 104 3 104 -2 0 -9 -17 -15 -37z"/>
<path d="M14312 9080 c0 -14 2 -19 5 -12 2 6 2 18 0 25 -3 6 -5 1 -5 -13z"/>
<path d="M14296 9009 c-3 -18 -1 -38 5 -45 11 -13 6 -18 -13 -15 -5 0 -8 -6
-8 -15 0 -8 5 -12 10 -9 6 3 10 -4 10 -16 0 -17 -3 -19 -14 -10 -11 9 -14 4
-19 -24 -3 -20 -2 -46 2 -57 7 -18 9 -15 15 21 4 28 11 41 19 38 9 -3 12 16
12 73 0 84 -8 110 -19 59z"/>
<path d="M12881 9014 c0 -11 3 -14 6 -6 3 7 2 16 -1 19 -3 4 -6 -2 -5 -13z"/>
<path d="M15205 9021 c-3 -5 -1 -12 5 -16 5 -3 10 1 10 9 0 18 -6 21 -15 7z"/>
<path d="M15230 8981 c0 -12 5 -21 10 -21 6 0 10 6 10 14 0 8 -4 18 -10 21 -5
3 -10 -3 -10 -14z"/>
<path d="M12889 8978 c-7 -84 -5 -98 13 -98 16 0 17 3 8 20 -6 11 -8 20 -4 20
3 0 2 6 -4 13 -6 7 -9 23 -5 35 3 12 3 22 -1 22 -3 0 -6 -6 -7 -12z"/>
<path d="M15275 8970 c-3 -5 -1 -10 4 -10 6 0 11 5 11 10 0 6 -2 10 -4 10 -3
0 -8 -4 -11 -10z"/>
<path d="M15284 8857 c-1 -69 0 -81 6 -47 l7 45 1 -47 c1 -27 -2 -48 -8 -48
-5 0 -1 -9 9 -19 18 -18 61 -25 61 -10 0 3 -6 21 -12 40 l-13 34 -6 -35 -6
-35 -2 43 c0 24 3 41 8 38 5 -3 4 13 -2 36 -9 35 -12 39 -19 22 -6 -14 -7 -10
-3 13 5 33 -2 63 -14 63 -3 0 -7 -42 -7 -93z"/>
<path d="M11893 8926 c-12 -6 -24 -18 -26 -28 -6 -20 9 -25 16 -5 4 10 6 10 6
0 2 -23 19 -14 25 13 8 32 7 33 -21 20z"/>
<path d="M11813 8810 c-11 -45 -16 -83 -12 -86 4 -2 11 16 14 41 4 25 11 43
15 40 4 -3 10 15 12 40 2 25 1 45 -2 45 -4 0 -15 -36 -27 -80z"/>
<path d="M12883 8798 c0 -45 3 -65 8 -53 7 19 8 19 8 -2 1 -26 26 -31 35 -7 8
21 8 36 -1 31 -5 -3 -8 15 -8 39 0 40 -13 63 -36 64 -3 0 -6 -33 -6 -72z m27
16 c0 -19 -4 -33 -8 -30 -8 5 -4 66 4 66 2 0 4 -16 4 -36z"/>
<path d="M14301 8850 c0 -8 4 -24 9 -35 5 -13 9 -14 9 -5 0 8 -4 24 -9 35 -5
13 -9 14 -9 5z"/>
<path d="M11823 8743 c-4 -16 -6 -35 -5 -45 2 -9 -6 -23 -18 -31 -18 -12 -18
-15 -5 -20 8 -4 15 -14 14 -24 0 -16 -1 -15 -8 2 -6 14 -8 8 -7 -22 1 -48 3
-50 23 -25 14 16 14 16 9 0 -3 -10 -1 -18 4 -18 6 0 10 11 10 25 0 14 -4 25
-10 25 -5 0 -10 7 -10 15 0 8 4 15 8 15 4 0 8 29 8 65 -1 36 -2 65 -3 65 -2 0
-6 -12 -10 -27z"/>
<path d="M14225 8723 c-3 -16 -14 -36 -22 -46 -15 -16 -14 -20 12 -47 28 -29
53 -41 39 -19 -12 20 34 -10 49 -31 13 -19 14 -18 14 19 l0 39 -41 -2 c-22 -2
-49 2 -58 8 -15 9 -15 11 0 25 9 9 18 31 20 49 4 39 -3 42 -13 5z m85 -103 c0
-5 -4 -10 -10 -10 -5 0 -10 5 -10 10 0 6 5 10 10 10 6 0 10 -4 10 -10z"/>
<path d="M11786 8694 c-4 -9 -4 -19 -1 -22 3 -3 5 0 5 7 0 7 5 9 10 6 6 -3 10
-2 10 4 0 18 -18 21 -24 5z"/>
<path d="M15364 8649 c2 -30 7 -62 11 -71 4 -11 3 -18 -4 -18 -8 0 -10 -53 -9
-177 1 -107 4 -154 7 -118 4 43 8 55 14 40 9 -21 -1 -127 -12 -121 -3 2 -7
-35 -8 -84 -1 -84 -13 -130 -33 -130 -6 0 -10 7 -10 15 0 8 -7 15 -15 15 -10
0 -17 -14 -21 -40 -4 -22 -10 -40 -15 -40 -5 0 -9 -5 -9 -11 0 -5 4 -8 8 -5 4
2 8 -5 8 -16 0 -19 -1 -19 -19 4 -11 12 -29 23 -41 23 -15 0 -20 6 -18 20 2
16 1 17 -7 6 -7 -11 6 -33 51 -88 33 -41 63 -72 66 -68 3 3 -3 12 -14 21 -19
15 -19 15 2 11 18 -4 24 2 34 35 6 22 14 47 17 57 4 9 2 13 -3 8 -5 -5 -14
-23 -21 -40 -7 -19 -12 -24 -12 -14 -1 24 26 87 38 87 9 0 24 75 37 190 8 67
8 303 0 385 -3 33 -8 84 -11 114 -2 30 -7 56 -10 59 -3 3 -3 -19 -1 -49z m13
-161 c-3 -8 -6 -5 -6 6 -1 11 2 17 5 13 3 -3 4 -12 1 -19z m10 -80 c-3 -8 -6
-5 -6 6 -1 11 2 17 5 13 3 -3 4 -12 1 -19z m-86 -475 c-12 -20 -14 -14 -5 12
4 9 9 14 11 11 3 -2 0 -13 -6 -23z m-46 -60 c13 -16 24 -35 24 -43 -1 -13 -1
-13 -6 -1 -3 8 -17 25 -29 38 -13 13 -24 26 -24 28 0 11 13 3 35 -22z m48 -23
c3 -11 1 -18 -4 -14 -5 3 -9 12 -9 20 0 20 7 17 13 -6z"/>
<path d="M12970 8675 c-11 -13 -10 -14 4 -9 9 3 16 10 16 15 0 13 -6 11 -20
-6z"/>
<path d="M14231 8654 c0 -11 3 -14 6 -6 3 7 2 16 -1 19 -3 4 -6 -2 -5 -13z"/>
<path d="M12886 8617 c-8 -31 -7 -37 4 -37 5 0 6 7 3 17 -4 11 -3 14 5 9 7 -4
12 -1 12 9 0 9 4 14 9 10 5 -3 12 -2 15 3 2 4 -6 9 -19 10 -16 1 -25 -5 -29
-21z"/>
<path d="M11772 8590 c0 -19 2 -27 5 -17 2 9 2 25 0 35 -3 9 -5 1 -5 -18z"/>
<path d="M14261 8595 c0 -5 11 -23 24 -40 14 -16 25 -25 25 -18 0 7 -11 25
-25 40 -13 15 -24 24 -24 18z"/>
<path d="M12804 8519 c1 -22 -2 -46 -6 -52 -6 -9 -8 -9 -8 1 0 6 -9 12 -20 12
-17 0 -19 -5 -15 -27 6 -26 5 -26 -8 -10 -19 23 -24 22 -24 -8 0 -14 4 -25 9
-25 5 0 6 5 2 11 -4 7 0 9 13 5 21 -7 37 8 91 87 35 49 35 64 1 25 l-20 -23 6
23 c4 15 2 22 -8 22 -9 0 -13 -12 -13 -41z"/>
<path d="M14340 8553 c-32 -13 -39 -43 -10 -43 18 0 25 -14 21 -46 -1 -7 6
-15 15 -18 14 -5 15 -4 5 8 -8 9 -9 16 -2 21 6 3 13 -4 16 -17 4 -15 21 -29
45 -40 22 -9 40 -13 41 -10 0 4 2 22 3 40 4 32 3 32 -40 32 l-44 0 6 40 c6 37
5 40 -17 39 -13 0 -31 -3 -39 -6z m118 -90 c-14 -4 -16 -8 -8 -24 12 -22 4
-24 -30 -4 l-25 14 25 10 c14 5 32 9 40 9 10 0 9 -2 -2 -5z"/>
<path d="M11753 8355 c0 -38 2 -53 4 -32 2 20 2 52 0 70 -2 17 -4 1 -4 -38z"/>
<path d="M12484 8356 l1 -41 -82 1 c-46 0 -83 -3 -83 -7 0 -5 7 -6 15 -3 9 4
15 0 15 -10 0 -9 8 -16 18 -17 9 0 12 -3 5 -5 -7 -3 -21 0 -32 6 -18 9 -21 8
-18 -9 2 -11 7 -24 12 -28 4 -5 4 -2 0 6 -6 11 -4 13 8 8 9 -3 29 0 44 8 15 8
33 15 40 15 7 0 10 7 7 15 -5 11 1 13 23 11 34 -5 59 7 49 22 -7 12 24 32 46
31 7 0 3 -5 -9 -11 -44 -21 -22 -27 25 -7 54 23 74 39 49 39 -9 0 -17 -4 -17
-10 0 -5 -5 -10 -10 -10 -7 0 -7 6 -1 19 10 18 7 19 -48 18 l-59 -1 2 -40z
m51 14 c-11 -5 -27 -9 -35 -9 -13 -1 -13 0 0 9 8 5 24 9 35 9 l20 0 -20 -9z
m-135 -80 c8 -5 11 -10 5 -10 -5 0 -17 5 -25 10 -8 5 -10 10 -5 10 6 0 17 -5
25 -10z"/>
<path d="M12638 8393 c6 -2 10 -9 7 -14 -4 -5 1 -6 9 -3 20 8 11 24 -12 23
-11 0 -12 -2 -4 -6z"/>
<path d="M14493 8394 c2 -2 20 -10 41 -19 25 -11 35 -12 30 -4 -5 9 -2 10 10
6 10 -4 21 -7 24 -7 4 0 0 -5 -8 -11 -12 -8 -10 -9 9 -4 15 5 21 3 17 -3 -3
-5 0 -12 7 -15 8 -3 13 4 13 19 0 16 -5 23 -13 20 -7 -3 -13 -1 -13 4 0 5 8
10 18 13 9 2 -2 4 -25 3 -24 0 -43 -4 -43 -8 0 -4 -8 -8 -17 -8 -13 0 -15 2
-5 8 8 6 2 9 -18 9 -16 0 -29 -2 -27 -3z"/>
<path d="M14684 8308 c9 -5 26 -6 37 -3 13 5 19 3 15 -3 -6 -9 26 -28 87 -51
18 -7 26 -7 22 -1 -3 6 1 10 10 10 9 0 14 -4 10 -9 -3 -5 4 -12 15 -16 11 -3
20 -10 20 -15 0 -5 7 -7 15 -4 8 4 15 1 15 -5 0 -6 7 -11 15 -11 8 0 32 -22
52 -49 21 -28 44 -50 51 -50 6 -1 12 -7 12 -14 0 -7 13 -28 28 -46 l28 -33 0
41 c0 22 -3 41 -8 41 -8 0 -12 -16 -9 -33 1 -5 -3 -6 -9 -2 -5 3 -10 17 -10
30 0 18 -7 26 -25 31 -20 5 -23 9 -15 19 8 10 6 24 -8 54 -18 36 -18 40 -3 45
9 2 -17 3 -57 1 -60 -3 -75 -1 -90 14 -9 10 -32 19 -51 19 -41 1 -55 12 -15
12 16 0 38 7 48 15 11 8 15 15 9 15 -6 0 -19 3 -29 7 -12 4 -15 3 -10 -5 4 -7
1 -12 -8 -12 -9 0 -16 4 -16 9 0 5 -32 9 -71 8 -49 0 -66 -3 -55 -9z m91 -18
c3 -5 2 -10 -4 -10 -5 0 -13 5 -16 10 -3 6 -2 10 4 10 5 0 13 -4 16 -10z m180
-71 c4 -6 13 -8 21 -5 7 3 18 -4 24 -14 7 -14 7 -20 0 -20 -5 0 -10 5 -10 10
0 6 -6 10 -12 10 -16 1 -56 30 -41 30 7 0 15 -5 18 -11z m66 -66 c-12 -20 -14
-14 -5 12 4 9 9 14 11 11 3 -2 0 -13 -6 -23z"/>
<path d="M12160 8230 c0 -5 7 -7 15 -4 8 4 15 8 15 10 0 2 -7 4 -15 4 -8 0
-15 -4 -15 -10z"/>
<path d="M12188 8215 c-27 -41 -31 -48 -20 -41 5 3 13 -1 16 -10 5 -13 2 -15
-15 -11 -11 3 -18 3 -15 0 6 -6 -25 -28 -56 -39 -24 -9 -23 -24 2 -24 11 0 20
4 20 9 0 5 15 17 33 26 l32 16 -31 -29 c-17 -15 -34 -35 -37 -43 -5 -12 -7
-12 -16 1 -9 13 -10 13 -15 0 -2 -8 -4 -24 -3 -34 0 -14 17 0 63 50 43 48 59
73 52 81 -12 15 8 56 23 47 7 -4 7 -10 0 -17 -20 -20 -12 -31 9 -12 11 10 17
21 15 25 -3 5 3 6 13 3 11 -3 19 1 19 9 0 22 -73 17 -89 -7z"/>
<path d="M11760 8142 c0 -10 5 -23 12 -30 6 -6 11 -30 10 -53 -1 -23 3 -60 10
-83 7 -23 13 -48 15 -56 1 -8 6 -31 11 -50 9 -35 9 -35 17 23 4 31 5 68 1 82
-3 14 -8 37 -11 53 -4 22 -4 23 4 7 6 -14 9 2 8 53 l0 72 -38 0 c-31 0 -39 -4
-39 -18z m52 -36 c3 -24 0 -32 -9 -29 -7 3 -13 21 -13 40 0 43 16 35 22 -11z
m13 -137 c4 -11 2 -19 -2 -19 -10 0 -34 80 -32 108 1 9 7 -3 15 -27 7 -24 16
-52 19 -62z"/>
<path d="M12100 8145 c0 -8 -5 -15 -12 -15 -6 0 -9 -3 -5 -6 3 -4 18 3 33 15
25 20 25 21 5 21 -12 0 -21 -6 -21 -15z"/>
<path d="M15070 8147 c0 -17 20 -37 37 -37 7 0 13 5 13 10 0 6 -7 10 -15 10
-8 0 -15 7 -15 15 0 8 -4 15 -10 15 -5 0 -10 -6 -10 -13z"/>
<path d="M14358 7804 l-3 -317 -61 -13 c-83 -17 -152 -53 -203 -109 -32 -34
-41 -53 -39 -73 5 -45 39 -40 82 12 116 142 397 140 494 -4 27 -40 61 -57 74
-38 18 29 7 60 -38 108 -53 57 -133 98 -204 107 l-50 6 -2 316 -3 316 -22 3
-23 3 -2 -317z"/>
<path d="M12753 8084 c-17 -45 14 -357 56 -559 36 -168 39 -177 64 -169 12 3
23 7 23 8 1 0 -6 44 -17 96 -31 161 -69 426 -76 536 -5 93 -8 104 -25 104 -10
0 -21 -7 -25 -16z"/>
<path d="M12000 7965 l0 -39 30 29 c36 34 38 45 8 45 -18 0 -20 -2 -8 -10 8
-5 11 -13 6 -17 -4 -4 -14 1 -22 11 -13 18 -14 17 -14 -19z"/>
<path d="M15130 7990 c0 -4 12 -17 27 -31 16 -14 21 -16 13 -5 -14 17 -13 18
8 12 14 -5 22 -3 22 4 0 6 -4 8 -10 5 -5 -3 -10 -2 -10 4 0 5 6 12 13 15 6 3
-5 4 -25 3 -21 0 -38 -4 -38 -7z"/>
<path d="M11927 7913 c-11 -10 -8 -45 3 -38 5 3 6 13 3 22 -6 15 -5 16 9 3 14
-13 11 -19 -20 -57 -20 -23 -38 -40 -40 -38 -3 2 0 10 6 18 9 10 5 13 -18 12
-36 -1 -46 -10 -31 -29 7 -8 10 -19 7 -25 -3 -5 0 -21 8 -35 l13 -27 7 32 c3
18 31 60 65 98 47 53 55 67 41 68 -13 1 -17 -3 -14 -15 5 -15 4 -15 -6 1 -12
18 -22 21 -33 10z m-57 -98 c0 -8 -4 -15 -10 -15 -5 0 -7 7 -4 15 4 8 8 15 10
15 2 0 4 -7 4 -15z m-9 -48 c-10 -9 -11 -8 -5 6 3 10 9 15 12 12 3 -3 0 -11
-7 -18z"/>
<path d="M12849 7257 c-106 -70 -97 -232 15 -286 55 -27 102 -26 156 2 78 41
109 138 68 217 -32 63 -77 90 -148 90 -43 0 -66 -6 -91 -23z"/>
<path d="M12820 5628 c0 -7 0 -596 0 -1308 l0 -1295 1430 -2 c886 -1 1430 2
1430 8 0 5 -534 9 -1400 9 l-1400 0 0 1285 c0 1329 0 1306 38 1254 7 -10 22
-19 34 -21 30 -4 34 -26 6 -31 -13 -2 -2 -5 25 -6 28 0 47 3 47 10 0 6 -7 8
-16 5 -8 -3 -12 -2 -9 4 3 5 -11 18 -32 27 -21 10 -40 21 -43 24 -3 4 -22 16
-42 28 -29 16 -38 17 -38 7 0 -8 3 -16 8 -18 4 -1 5 -581 2 -1288 l-5 -1285
-3 1289 c-2 1140 -4 1287 -17 1282 -18 -7 -20 5 -3 22 9 9 9 12 0 12 -7 0 -12
-6 -12 -12z"/>
<path d="M12896 5535 c-3 -9 0 -15 9 -15 8 0 15 7 15 15 0 8 -4 15 -9 15 -5 0
-11 -7 -15 -15z"/>
<path d="M13043 5514 c0 -7 4 -11 9 -8 4 3 8 -2 8 -10 0 -9 -4 -16 -10 -16 -5
0 -10 -9 -10 -20 0 -16 7 -20 30 -20 17 0 30 5 30 10 0 6 7 10 16 10 8 0 13
-4 10 -8 -2 -4 9 -9 25 -10 19 -2 28 2 24 8 -3 5 -12 10 -19 10 -8 0 -19 7
-26 15 -7 8 -23 15 -36 15 -14 0 -24 6 -24 14 0 8 -6 16 -13 19 -8 3 -14 -1
-14 -9z"/>
<path d="M13206 5404 c-13 -35 -7 -39 62 -40 37 -1 60 1 52 4 -8 2 -22 11 -31
19 -12 10 -23 11 -42 4 -17 -7 -28 -7 -32 -1 -4 6 3 10 15 10 12 0 18 5 15 10
-9 15 -32 12 -39 -6z"/>
<path d="M13360 5310 c0 -32 0 -33 40 -27 22 3 40 2 40 -3 0 -4 9 -10 20 -13
11 -3 20 -10 20 -16 0 -9 -5 -9 -20 -1 -16 8 -20 8 -20 -4 0 -8 6 -17 13 -19
9 -4 8 -8 -3 -16 -12 -9 -11 -11 8 -11 14 0 26 8 32 23 l9 22 7 -22 c7 -24 37
-30 63 -14 12 8 9 12 -15 23 -16 7 -31 15 -34 18 -3 3 -14 10 -25 16 -11 6
-46 26 -77 43 l-58 33 0 -32z m50 -10 c0 -5 -6 -10 -14 -10 -8 0 -18 5 -21 10
-3 6 3 10 14 10 12 0 21 -4 21 -10z m140 -80 c0 -5 -5 -10 -11 -10 -5 0 -7 5
-4 10 3 6 8 10 11 10 2 0 4 -4 4 -10z"/>
<path d="M15000 5156 c-536 -301 -795 -437 -817 -429 -20 8 -16 25 5 19 9 -3
24 -1 32 4 12 8 10 10 -8 10 -13 0 -20 4 -17 10 4 6 14 9 23 8 10 -2 16 3 14
10 -1 8 2 11 9 6 8 -4 9 -3 5 4 -4 7 -1 12 8 12 21 0 20 -17 -1 -29 -29 -16
-8 -23 21 -7 l27 14 -20 19 c-12 11 -41 29 -66 42 -24 12 -47 26 -50 32 -4 5
-11 9 -17 9 -17 0 44 -50 70 -56 12 -4 22 -9 22 -13 0 -13 -42 -32 -59 -26
-14 4 -17 -2 -18 -47 0 -45 4 -58 28 -86 29 -33 41 -64 15 -40 -8 7 -12 15
-11 18 2 4 -4 11 -13 17 -15 9 -17 4 -19 -46 -2 -34 1 -51 6 -42 6 9 11 10 15
2 4 -6 19 -10 34 -10 24 2 24 2 5 6 -13 2 -23 12 -23 21 0 12 3 13 11 5 8 -8
20 -6 43 8 35 21 46 24 46 9 0 -5 -15 -14 -32 -19 -18 -5 -27 -10 -20 -10 7
-1 10 -6 6 -13 -4 -7 -3 -8 5 -4 6 4 24 5 39 1 l27 -5 -2 -338 c-1 -185 -2
-383 -2 -439 l-1 -103 -40 0 c-33 0 -40 -3 -40 -20 0 -17 7 -20 39 -20 23 0
41 5 44 13 2 7 3 6 3 -3 -1 -11 -17 -16 -56 -20 l-55 -5 1 -60 2 -60 -7 50 -8
50 -1 -42 c-1 -24 -6 -43 -10 -43 -4 0 -7 28 -6 62 2 39 -1 56 -7 47 -12 -19
-11 -116 1 -124 16 -10 12 -38 -5 -31 -10 4 -15 -1 -15 -14 0 -28 37 -26 46 2
l7 23 8 -23 9 -23 231 1 c127 1 237 4 245 7 9 3 14 21 14 54 l0 49 40 0 c38 0
40 2 40 30 l0 30 -219 0 c-121 0 -225 2 -233 5 -10 4 -13 68 -11 333 1 180 5
389 9 466 5 112 4 140 -7 147 -10 6 -11 9 -1 9 18 0 15 18 -8 42 -11 12 -17
24 -14 27 3 3 12 -3 21 -14 15 -20 15 -20 13 0 -4 38 0 43 63 78 34 19 217
121 405 226 189 105 350 191 357 191 8 0 83 -40 167 -89 398 -230 643 -374
681 -399 23 -16 47 -32 54 -35 12 -7 83 60 83 78 0 10 -193 124 -747 442 -127
73 -235 133 -240 132 -4 0 -82 -42 -173 -93z m-670 -577 c0 -5 -7 -9 -15 -9
-15 0 -20 12 -9 23 8 8 24 -1 24 -14z m7 -171 c-3 -7 -5 -2 -5 12 0 14 2 19 5
13 2 -7 2 -19 0 -25z"/>
<path d="M13605 5196 c14 -12 17 -19 8 -24 -17 -10 -12 -52 6 -52 8 0 23 7 33
17 17 15 19 15 36 0 20 -18 32 -22 32 -9 0 5 -17 17 -38 28 -21 12 -51 29 -67
38 -24 14 -26 15 -10 2z m43 -38 c-3 -7 -12 -14 -21 -16 -12 -2 -15 1 -11 12
7 19 38 22 32 4z"/>
<path d="M13665 5130 c-3 -5 -1 -10 4 -10 6 0 11 5 11 10 0 6 -2 10 -4 10 -3
0 -8 -4 -11 -10z"/>
<path d="M13760 5103 c0 -5 5 -14 12 -21 9 -9 9 -12 0 -12 -7 0 -12 -7 -12
-16 0 -14 8 -16 49 -12 38 4 48 2 44 -9 -3 -8 3 -13 17 -13 12 0 20 5 18 11
-5 15 -128 83 -128 72z"/>
<path d="M9120 5040 c0 -65 31 -275 46 -310 8 -19 26 -48 40 -65 24 -29 25
-29 19 -5 -3 14 -14 93 -24 175 -16 139 -19 153 -49 194 l-32 44 0 -33z"/>
<path d="M8800 5031 c0 -16 82 -255 102 -299 21 -45 33 -58 42 -44 7 12 -85
271 -112 315 -24 37 -32 45 -32 28z"/>
<path d="M13894 5009 c-3 -6 -17 -8 -30 -5 -19 5 -24 2 -24 -13 0 -14 10 -20
38 -25 52 -8 64 -8 57 4 -3 5 -12 7 -20 3 -8 -3 -15 -1 -15 5 0 20 31 21 50 2
11 -11 26 -20 33 -20 15 1 -53 60 -70 60 -6 0 -15 -5 -19 -11z"/>
<path d="M9506 4943 c-10 -27 -20 -82 -23 -124 -6 -74 -5 -76 27 -112 18 -20
35 -37 39 -37 3 0 7 26 8 58 1 31 11 83 22 116 l21 58 -32 44 c-17 24 -34 44
-38 44 -3 0 -14 -21 -24 -47z"/>
<path d="M14006 4962 c19 -13 25 -42 9 -42 -8 0 -15 -9 -15 -20 0 -15 7 -20
25 -20 14 0 25 4 25 9 0 5 9 11 21 14 15 4 19 2 15 -9 -3 -9 1 -14 14 -14 36
0 31 19 -12 41 -23 12 -48 28 -56 35 -7 8 -19 14 -25 14 -8 0 -9 -3 -1 -8z"/>
<path d="M8644 4849 c3 -30 9 -88 12 -129 l6 -75 -51 -24 c-28 -14 -66 -40
-85 -58 -32 -31 -34 -36 -24 -66 5 -18 14 -46 19 -64 5 -18 14 -35 20 -38 18
-11 47 -80 54 -128 5 -30 17 -58 36 -79 15 -18 34 -44 41 -58 7 -14 26 -43 43
-65 51 -65 51 -71 4 -37 -48 34 -76 61 -109 102 -20 25 -21 25 -33 5 -16 -26
-97 -107 -121 -120 -16 -9 -17 -15 -7 -51 10 -37 15 -43 56 -54 55 -15 119
-69 147 -124 32 -61 30 -155 -4 -225 -16 -33 -23 -58 -18 -65 5 -6 22 -27 38
-46 16 -19 61 -82 100 -140 124 -183 184 -225 323 -225 81 0 90 2 170 42 110
56 193 120 306 236 111 115 178 215 220 328 60 159 67 200 68 379 0 144 -3
174 -23 237 -12 40 -34 85 -47 100 l-25 28 6 -30 c4 -16 11 -38 15 -47 18 -33
10 -287 -11 -383 -17 -77 -64 -220 -77 -235 -2 -2 -18 12 -36 31 -77 86 -183
204 -197 219 -8 9 -49 54 -90 101 -41 46 -79 89 -85 94 -6 6 -21 22 -34 37
l-23 26 39 39 c83 83 202 152 329 193 l71 23 -9 41 c-15 66 -26 71 -89 43 -30
-13 -79 -40 -109 -59 -57 -37 -225 -179 -248 -210 -14 -19 -38 -24 -44 -9 -1
5 -21 29 -43 53 -22 24 -74 81 -115 127 -41 47 -86 96 -99 110 -13 14 -53 59
-90 100 -36 41 -73 82 -81 91 -8 9 -35 38 -59 65 l-44 48 7 -54z m417 -896
c-26 -60 -55 -123 -64 -141 l-18 -33 -35 38 c-20 21 -43 51 -52 68 -8 16 -22
35 -31 41 -9 7 -27 21 -41 33 l-25 21 33 -11 c62 -21 166 10 242 70 14 11 28
21 32 21 3 0 -15 -48 -41 -107z"/>
<path d="M14160 4834 c0 -20 17 -34 41 -34 16 0 10 20 -8 27 -10 4 -21 11 -25
17 -5 6 -8 2 -8 -10z"/>
<path d="M14520 4270 l0 -150 155 0 155 0 0 150 0 150 -155 0 -155 0 0 -150z
m280 70 l0 -60 -120 0 -120 0 0 60 0 60 120 0 120 0 0 -60z m-10 -140 l0 -60
-115 0 -115 0 0 60 0 60 115 0 115 0 0 -60z"/>
<path d="M15500 4353 c0 -27 -3 -92 -7 -145 l-6 -98 156 0 157 0 0 68 c0 38 3
103 6 145 l7 77 -157 0 -156 0 0 -47z m270 -23 l0 -60 -120 0 -120 0 0 60 0
60 120 0 120 0 0 -60z m-2 -142 l3 -58 -121 0 -120 0 0 60 0 61 118 -3 117 -3
3 -57z"/>
<path d="M14987 4230 c-4 -35 -7 -177 -7 -316 l0 -254 148 -1 c81 -1 163 -2
182 -3 l35 -1 3 313 2 312 -67 0 c-38 0 -118 3 -179 6 l-111 7 -6 -63z m344
36 c2 -2 3 -52 1 -110 l-3 -106 -160 0 -159 0 0 110 0 110 158 0 c87 0 161 -2
163 -4z"/>
<path d="M15985 3722 c1 -54 -2 -103 -7 -109 -8 -10 -70 -13 -249 -13 l-239 0
0 -25 c0 -23 4 -25 45 -25 l45 0 2 -50 c0 -27 1 -55 2 -62 1 -7 -9 -15 -22
-18 -13 -3 -23 -8 -23 -12 2 -23 0 -29 -9 -23 -5 3 -7 12 -4 20 5 12 -12 15
-108 14 -62 0 -137 3 -165 6 -36 5 -53 3 -53 -4 0 -6 10 -11 23 -12 12 0 16
-3 9 -6 -7 -3 -29 3 -49 12 -30 14 -42 15 -73 6 -21 -6 -46 -11 -56 -10 -18 0
-18 1 -1 8 11 4 -4 7 -40 8 -76 1 -43 -12 69 -27 46 -7 85 -14 87 -16 8 -8
-67 -4 -116 6 -26 5 -66 12 -87 16 -29 4 -36 8 -25 15 10 6 3 9 -23 9 -21 0
-38 -4 -38 -10 0 -5 -19 -11 -42 -11 l-43 -1 53 -8 c29 -4 56 -11 60 -15 4 -4
-4 -5 -18 -2 -14 3 -58 9 -97 13 -63 6 -73 4 -73 -9 0 -9 8 -18 18 -21 32 -10
807 -1 814 9 5 6 8 5 8 -2 0 -7 5 -13 10 -13 6 0 10 7 10 15 0 8 -4 15 -10 15
-5 0 -10 5 -10 11 0 6 9 8 20 4 11 -4 20 -3 19 2 -5 26 4 33 41 33 l40 0 0
-197 c0 -111 5 -205 10 -213 6 -10 10 -11 10 -2 0 6 7 12 15 12 12 0 15 31 18
198 l3 197 -1 -207 c0 -114 3 -204 7 -200 4 4 9 100 10 212 l3 205 158 3 c86
1 157 6 157 10 0 4 123 6 272 4 l273 -2 -40 21 c-22 11 -50 27 -62 35 -12 8
-29 11 -37 8 -9 -3 -17 2 -20 14 -7 20 -38 35 -67 33 -9 -1 -19 6 -21 16 -3
10 -33 33 -68 51 -36 20 -60 28 -58 20 3 -7 18 -19 34 -27 17 -9 24 -16 16
-19 -8 -2 -19 1 -25 7 -15 15 -27 14 -27 -4 0 -11 11 -15 41 -15 24 0 38 4 34
10 -3 5 0 7 8 5 10 -5 11 -15 3 -50 l-11 -45 -117 0 c-72 0 -118 -4 -118 -10
0 -6 73 -10 200 -10 127 0 200 4 200 10 0 6 5 10 11 10 6 0 9 -9 6 -19 -4 -16
1 -21 27 -24 17 -2 -5 -2 -49 0 -44 3 -152 8 -240 11 l-160 7 2 86 2 87 -38 6
c-38 6 -38 6 -44 63 -7 64 -4 71 17 53 9 -6 20 -10 26 -8 7 2 -4 11 -23 20
l-35 17 3 -97z m448 -176 c14 -11 15 -15 4 -19 -15 -5 -37 10 -37 25 0 12 12
9 33 -6z m-36 -22 c-3 -3 -12 -4 -19 -1 -8 3 -5 6 6 6 11 1 17 -2 13 -5z
m-948 -140 c2 -2 -36 -3 -85 -2 -70 1 -79 2 -44 7 42 6 120 3 129 -5z m-206
-1 c-7 -2 -21 -2 -30 0 -10 3 -4 5 12 5 17 0 24 -2 18 -5z m-220 -10 c-13 -2
-33 -2 -45 0 -13 2 -3 4 22 4 25 0 35 -2 23 -4z"/>
<path d="M16005 3770 c3 -5 18 -10 32 -10 32 0 28 5 -10 14 -19 4 -26 3 -22
-4z"/>
<path d="M16102 3736 c22 -20 24 -25 12 -30 -22 -9 -24 -8 -18 9 4 8 1 15 -5
15 -6 0 -10 -11 -9 -25 3 -27 26 -33 46 -13 9 9 12 9 12 0 0 -7 4 -12 10 -12
5 0 7 8 3 18 -6 16 -5 15 15 -2 11 -10 26 -16 33 -14 12 4 -96 78 -115 78 -6
0 1 -11 16 -24z"/>
<path d="M14161 3664 c0 -11 3 -14 6 -6 3 7 2 16 -1 19 -3 4 -6 -2 -5 -13z"/>
<path d="M14200 3664 c0 -17 22 -14 28 4 2 7 -3 12 -12 12 -9 0 -16 -7 -16
-16z"/>
<path d="M14720 3419 c0 -11 51 -11 105 0 35 7 30 8 -32 8 -40 0 -73 -4 -73
-8z"/>
<path d="M17410 3380 c0 -11 7 -20 15 -20 8 0 15 9 15 20 0 11 -7 20 -15 20
-8 0 -15 -9 -15 -20z"/>
<path d="M16920 3375 c0 -13 27 -15 180 -15 153 0 180 2 180 15 0 13 -27 15
-180 15 -153 0 -180 -2 -180 -15z"/>
<path d="M16035 3301 l130 -7 -125 -5 c-85 -3 -33 -5 161 -7 242 -2 288 -4
292 -17 4 -8 2 -17 -3 -20 -6 -4 -10 -15 -10 -26 0 -17 7 -19 70 -17 64 1 68
3 49 16 -18 12 -23 13 -31 1 -8 -11 -9 -10 -4 4 4 12 -2 20 -19 27 -14 5 -25
14 -25 19 0 23 -72 30 -335 34 -154 2 -221 1 -150 -2z"/>
<path d="M15907 2596 l2 -690 1048 2 c576 1 1103 2 1171 2 l122 0 -1 93 c0 89
-1 93 -29 114 -35 28 -60 38 -60 25 0 -6 14 -16 30 -24 17 -7 30 -16 30 -20 0
-12 -35 -9 -48 4 -8 8 -12 8 -12 1 0 -13 23 -23 56 -23 23 0 24 -2 24 -80 l0
-80 -1160 0 -1160 0 -1 633 c0 347 -4 655 -7 682 -4 28 -6 -260 -5 -639z"/>
<path d="M16642 3153 c3 -25 7 -28 40 -28 44 -1 69 -18 50 -37 -7 -7 -12 -20
-12 -30 0 -14 8 -18 33 -18 30 1 31 1 13 15 -23 17 -17 19 18 5 l26 -9 -4
-121 c-3 -66 -1 -118 3 -116 11 7 12 234 0 241 -5 4 -7 11 -4 16 4 5 -2 12
-12 16 -10 4 -45 26 -78 50 -32 24 -63 43 -68 43 -4 0 -7 -12 -5 -27z m38 -13
c0 -5 -7 -10 -15 -10 -8 0 -15 5 -15 10 0 6 7 10 15 10 8 0 15 -4 15 -10z"/>
<path d="M2527 3103 c-4 -3 -7 -55 -7 -115 l0 -108 270 0 270 0 0 115 0 115
-263 0 c-145 0 -267 -3 -270 -7z"/>
<path d="M16820 3090 c0 -20 7 -20 295 -20 288 0 295 0 295 20 0 20 -7 20
-295 20 -288 0 -295 0 -295 -20z"/>
<path d="M16890 2943 c0 -27 -3 -58 -6 -70 -6 -22 -4 -23 59 -23 l66 0 -6 53
c-7 65 -13 73 -13 19 l0 -42 -45 0 -45 0 0 49 0 50 43 4 42 4 -47 1 -48 2 0
-47z"/>
<path d="M17083 2983 c9 -2 25 -2 35 0 9 3 1 5 -18 5 -19 0 -27 -2 -17 -5z"/>
<path d="M17308 2983 c7 -3 16 -2 19 1 4 3 -2 6 -13 5 -11 0 -14 -3 -6 -6z"/>
<path d="M17054 2881 c-2 -2 -4 -10 -4 -18 0 -9 18 -13 65 -13 49 0 65 3 65
14 0 10 -17 15 -61 18 -33 1 -63 1 -65 -1z"/>
<path d="M17234 2881 c-2 -2 -4 -10 -4 -18 0 -9 18 -13 66 -13 55 0 65 3 62
16 -2 13 -16 17 -61 18 -32 0 -61 -1 -63 -3z"/>
<path d="M16890 2763 c0 -27 -3 -58 -6 -70 -6 -22 -4 -23 61 -23 65 0 67 1 61
23 -3 12 -6 43 -6 70 l0 47 -55 0 -55 0 0 -47z m100 -13 l0 -50 -45 0 -45 0 0
50 0 50 45 0 45 0 0 -50z"/>
<path d="M17080 2804 c38 -8 90 -9 90 -2 0 4 -24 7 -52 7 -29 -1 -46 -3 -38
-5z"/>
<path d="M16813 2760 c0 -25 2 -35 4 -22 2 12 2 32 0 45 -2 12 -4 2 -4 -23z"/>
<path d="M17242 2760 c-1 -25 -5 -55 -8 -67 -6 -22 -4 -23 60 -23 68 0 77 7
56 40 -6 10 -10 11 -10 3 0 -9 -16 -13 -44 -13 l-45 0 -4 53 -3 52 -2 -45z"/>
<path d="M16800 2690 c0 -11 2 -20 4 -20 2 0 6 9 9 20 3 11 1 20 -4 20 -5 0
-9 -9 -9 -20z"/>
<path d="M17050 2685 c0 -12 14 -15 71 -15 52 0 70 3 67 13 -3 7 -29 13 -71
15 -55 2 -67 0 -67 -13z"/>
<path d="M3136 2664 c-3 -9 -6 -51 -6 -94 0 -110 0 -110 76 -110 l64 0 0 110
0 110 -64 0 c-49 0 -65 -4 -70 -16z"/>
<path d="M17415 2354 c0 -260 -2 -306 -15 -314 -16 -11 -199 -14 -224 -4 -13
5 -16 25 -16 110 l0 104 -45 0 -45 0 0 -104 c0 -125 8 -119 -153 -115 -95 3
-112 1 -115 -12 -2 -14 32 -16 318 -16 290 -1 341 3 310 22 -5 3 -10 11 -10
16 0 6 5 7 10 4 6 -3 10 -1 10 4 0 6 -5 11 -12 11 -8 0 -9 3 -2 10 6 6 9 111
6 290 l-4 280 41 -27 c23 -14 39 -29 36 -32 -3 -2 -19 5 -35 18 -24 17 -30 19
-30 6 0 -8 5 -15 11 -15 8 0 8 -4 1 -13 -9 -10 -4 -13 22 -14 37 -1 76 -18 76
-33 0 -6 -7 -10 -15 -10 -8 0 -15 -7 -15 -15 0 -16 39 -24 109 -23 24 0 46 -4
50 -10 3 -5 24 -19 46 -31 l40 -21 -31 0 c-16 0 -35 5 -42 12 -9 9 -12 8 -12
-4 0 -19 18 -27 57 -24 24 2 29 -1 25 -16 -11 -45 26 -93 42 -53 3 8 13 15 22
15 13 0 14 -3 5 -14 -10 -12 -7 -14 21 -14 61 1 68 -2 68 -22 0 -12 5 -17 14
-14 8 3 17 1 21 -5 3 -7 -2 -11 -14 -11 -12 0 -21 -7 -21 -15 0 -13 11 -16 50
-14 43 2 54 -1 80 -26 35 -33 37 -42 13 -48 -11 -3 -7 -5 9 -6 16 0 27 2 27 7
-3 19 2 22 17 8 8 -9 23 -16 32 -16 12 0 7 7 -13 20 -16 11 -35 18 -42 15 -7
-2 -10 2 -6 11 3 7 0 14 -7 14 -7 0 -29 13 -49 29 -20 15 -40 30 -46 32 -18 7
-130 84 -133 92 -2 4 -8 7 -13 7 -5 0 -43 25 -84 55 -40 30 -78 55 -83 55 -5
0 -15 7 -22 15 -7 8 -18 15 -24 14 -7 0 -6 -2 2 -6 16 -6 15 -23 -2 -23 -16 0
-29 27 -21 41 4 5 -1 6 -9 3 -8 -3 -19 3 -26 15 -11 21 -116 96 -135 96 -5 0
-12 3 -15 7 -3 4 -5 -130 -5 -298z m180 146 c3 -5 2 -10 -4 -10 -5 0 -13 5
-16 10 -3 6 -2 10 4 10 5 0 13 -4 16 -10z m199 -116 c23 -9 20 -24 -4 -24 -11
0 -20 7 -20 15 0 17 2 18 24 9z m76 -44 c0 -5 -4 -10 -10 -10 -5 0 -10 5 -10
10 0 6 5 10 10 10 6 0 10 -4 10 -10z"/>
<path d="M16809 2603 c-1 -21 -3 -48 -4 -60 -1 -13 1 -23 4 -23 4 0 8 27 9 60
1 33 0 60 -3 60 -3 0 -6 -17 -6 -37z"/>
<path d="M16893 2555 c0 -27 2 -38 4 -22 2 15 2 37 0 50 -2 12 -4 0 -4 -28z"/>
<path d="M17062 2564 c-1 -23 -5 -56 -8 -73 l-6 -31 66 0 c59 0 66 2 66 20 0
18 -7 20 -54 20 l-55 0 -4 53 c-3 46 -4 47 -5 11z"/>
<path d="M17163 2555 c0 -27 2 -38 4 -22 2 15 2 37 0 50 -2 12 -4 0 -4 -28z"/>
<path d="M17331 2524 c0 -11 3 -14 6 -6 3 7 2 16 -1 19 -3 4 -6 -2 -5 -13z"/>
<path d="M16875 2490 c-13 -21 8 -30 71 -30 57 0 64 2 64 20 0 18 -7 20 -64
20 -36 0 -68 -4 -71 -10z"/>
<path d="M17225 2490 c-13 -21 12 -31 71 -28 44 2 59 7 59 18 0 19 -119 28
-130 10z"/>
<path d="M16800 2440 c0 -11 4 -20 8 -20 4 0 8 9 8 20 0 11 -4 20 -8 20 -4 0
-8 -9 -8 -20z"/>
<path d="M16892 2375 c-1 -28 -7 -56 -13 -62 -21 -21 2 -33 67 -33 57 0 64 2
64 20 0 18 -7 20 -54 20 l-55 0 -4 53 -3 52 -2 -50z"/>
<path d="M17062 2384 c-1 -23 -5 -56 -8 -73 l-6 -31 65 0 66 0 -6 68 c-7 82
-13 93 -13 24 l0 -52 -44 0 -45 0 -4 53 c-3 46 -4 47 -5 11z"/>
<path d="M16804 2349 c0 -32 3 -59 6 -59 10 0 12 108 3 113 -5 3 -8 -22 -9
-54z"/>
<path d="M17330 2338 c0 -13 -11 -18 -52 -20 -41 -2 -54 -7 -56 -20 -3 -16 5
-18 62 -18 36 0 67 4 70 9 3 5 -1 22 -9 37 -10 19 -15 23 -15 12z"/>
<path d="M16800 2265 c0 -8 4 -15 8 -15 5 0 9 7 9 15 0 8 -4 15 -9 15 -4 0 -8
-7 -8 -15z"/>
<path d="M16808 2195 c-2 -25 0 -45 4 -45 5 0 8 20 8 45 0 25 -2 45 -4 45 -2
0 -6 -20 -8 -45z"/>
<path d="M16891 2224 c0 -11 3 -14 6 -6 3 7 2 16 -1 19 -3 4 -6 -2 -5 -13z"/>
<path d="M17331 2224 c0 -11 3 -14 6 -6 3 7 2 16 -1 19 -3 4 -6 -2 -5 -13z"/>
<path d="M18004 2218 c3 -7 9 -21 12 -30 4 -10 10 -18 15 -18 16 0 9 25 -12
44 -12 10 -19 12 -15 4z"/>
<path d="M16891 2184 c0 -11 3 -14 6 -6 3 7 2 16 -1 19 -3 4 -6 -2 -5 -13z"/>
<path d="M17331 2164 c0 -11 3 -14 6 -6 3 7 2 16 -1 19 -3 4 -6 -2 -5 -13z"/>
<path d="M16802 2105 c1 -19 5 -35 10 -35 4 0 8 16 8 35 0 19 -4 35 -10 35 -5
0 -9 -16 -8 -35z"/>
<path d="M16876 2123 c-8 -19 5 -23 71 -23 55 0 64 3 61 17 -2 13 -16 16 -65
17 -39 1 -64 -3 -67 -11z"/>
<path d="M17224 2131 c-2 -2 -4 -11 -4 -18 0 -11 15 -13 68 -11 50 2 67 7 67
17 0 11 -16 14 -63 15 -35 1 -66 -1 -68 -3z"/>
<path d="M2517 1973 c-3 -5 -7 -102 -8 -218 l-3 -210 272 -3 272 -2 0 220 0
220 -264 0 c-146 0 -267 -3 -269 -7z"/>
<path d="M11330 1920 c-19 -4 -476 -96 -1015 -204 -964 -193 -1177 -237 -1183
-241 -4 -4 45 -265 109 -585 33 -162 69 -342 80 -400 21 -108 69 -345 89 -437
l12 -53 1189 0 1189 0 -7 33 c-3 17 -90 450 -193 962 -185 927 -186 930 -210
932 -14 0 -41 -2 -60 -7z"/>
<path d="M6638 1743 l-3 -138 -217 -3 -218 -2 0 -95 0 -95 221 0 220 0 -3
-135 -3 -135 49 0 c40 0 47 3 42 16 -3 9 -6 175 -6 370 l0 354 -40 0 -39 0 -3
-137z"/>
</g>
</svg>
